<?xml version="1.0" encoding="UTF-8"?>
<svg width="50px" height="51px" viewBox="0 0 50 51" version="1.1" xmlns="http://www.w3.org/2000/svg" xmlns:xlink="http://www.w3.org/1999/xlink">
    <!-- Generator: Sketch 51.2 (57519) - http://www.bohemiancoding.com/sketch -->
    <title>Combined Shape Copy 5</title>
    <desc>Created with Sketch.</desc>
    <defs></defs>
    <g id="Screens" stroke="none" stroke-width="1" fill="none" fill-rule="evenodd">
        <g id="Game" transform="translate(-695.000000, -475.000000)" fill="#000000" fill-rule="nonzero">
            <g id="Cards" transform="translate(231.000000, 427.000000)">
                <g id="9d-Med-Copy-2" transform="translate(446.000000, 0.000000)">
                    <path d="M40.2222222,87.6875143 C34.7780451,90.6196659 27.4206404,89.8045761 22.4948098,85.3499984 C16.7267187,80.1337391 16.477095,71.9022541 21.9372597,66.964462 C22.7255379,66.2515982 23.5897269,65.6463548 24.5088349,65.1482112 L42.3733109,48.9928251 L43,48.3974499 L43.6266891,48.9928251 L61.4911651,65.1482112 C62.4102731,65.6463548 63.2744621,66.2515982 64.0627403,66.964462 C69.522905,71.9022541 69.2732813,80.1337391 63.5051902,85.3499984 C58.5793596,89.8045761 51.2219549,90.6196659 45.7777778,87.6875143 L45.7777778,96.3974499 C45.7777778,97.5020194 44.8823473,98.3974499 43.7777778,98.3974499 L42.2222222,98.3974499 C41.1176527,98.3974499 40.2222222,97.5020194 40.2222222,96.3974499 L40.2222222,87.6875143 Z" id="Combined-Shape-Copy-5"></path>
                </g>
            </g>
        </g>
    </g>
</svg>