<?xml version="1.0" encoding="UTF-8"?>
<svg width="50px" height="50px" viewBox="0 0 50 50" version="1.1" xmlns="http://www.w3.org/2000/svg" xmlns:xlink="http://www.w3.org/1999/xlink">
    <!-- Generator: Sketch 51.2 (57519) - http://www.bohemiancoding.com/sketch -->
    <title>Combined Shape</title>
    <desc>Created with Sketch.</desc>
    <defs></defs>
    <g id="Screens" stroke="none" stroke-width="1" fill="none" fill-rule="evenodd">
        <g id="Artboard" transform="translate(-374.000000, -133.000000)" fill="#000000" fill-rule="nonzero">
            <g id="Large-Card-Copy-3" transform="translate(366.000000, 114.000000)">
                <path d="M30.2222222,57.6371959 C27.900943,59.0637618 25.015572,59.9090909 21.8888889,59.9090909 C14.2182674,59.9090909 8,54.8214176 8,48.5454545 C8,42.2697689 14.2177177,37.182268 21.8878717,37.1818182 C20.1442912,35.2825897 19.1111111,32.9218316 19.1111111,30.3636364 C19.1111111,24.0876733 25.3293785,19 33,19 C40.6706215,19 46.8888889,24.0876733 46.8888889,30.3636364 C46.8888889,32.9218316 45.8557088,35.2825897 44.1121283,37.1818182 C51.7822823,37.182268 58,42.2697689 58,48.5454545 C58,54.8214176 51.7817326,59.9090909 44.1111111,59.9090909 C40.984428,59.9090909 38.099057,59.0637618 35.7777778,57.6371959 L35.7777778,67 C35.7777778,68.1045695 34.8823473,69 33.7777778,69 L32.2222222,69 C31.1176527,69 30.2222222,68.1045695 30.2222222,67 L30.2222222,57.6371959 Z" id="Combined-Shape"></path>
            </g>
        </g>
    </g>
</svg>